<svg width="20" height="20" viewBox="0 0 20 20" fill="none" xmlns="http://www.w3.org/2000/svg">
<path d="M6.66667 2.5L2.5 6.66667L6.66667 10.8333M10 16.6667H12.5C13.1566 16.6667 13.8068 16.5373 14.4134 16.2861C15.02 16.0348 15.5712 15.6665 16.0355 15.2022C16.4998 14.7379 16.8681 14.1867 17.1194 13.5801C17.3707 12.9735 17.5 12.3233 17.5 11.6667C17.5 11.0101 17.3707 10.3599 17.1194 9.75325C16.8681 9.14662 16.4998 8.59543 16.0355 8.13113C15.5712 7.66684 15.02 7.29854 14.4134 7.04727C13.8068 6.796 13.1566 6.66667 12.5 6.66667H3.33333" stroke="white" stroke-width="2"/>
</svg>
